<?xml version="1.0" encoding="UTF-8" standalone="no"?>
<svg
   xmlns:dc="http://purl.org/dc/elements/1.1/"
   xmlns:cc="http://creativecommons.org/ns#"
   xmlns:rdf="http://www.w3.org/1999/02/22-rdf-syntax-ns#"
   xmlns:svg="http://www.w3.org/2000/svg"
   xmlns="http://www.w3.org/2000/svg"
   width="800.29498"
   height="800.29498"
   viewBox="0 0 211.74472 211.74472"
   version="1.1"
   id="svg8">
  <defs
     id="defs2" />
  <metadata
     id="metadata5">
    <rdf:RDF>
      <cc:Work
         rdf:about="">
        <dc:format>image/svg+xml</dc:format>
        <dc:type
           rdf:resource="http://purl.org/dc/dcmitype/StillImage" />
        <dc:title></dc:title>
      </cc:Work>
    </rdf:RDF>
  </metadata>
  <g
     id="layer1"
     transform="matrix(0.99743403,0,0,0.98019485,0.14436958,-81.345024)">
    <g
       id="g821"
       transform="matrix(0.73564824,0,0,0.73561994,28.021177,50.499564)">
      <path
         id="rect4586"
         d="m -34.177753,181.5526 c -5.216938,5.21697 -5.216938,13.67532 -2e-6,18.89229 L 26.80694,261.42959 48.121527,240.115 c -4.95933,-1.08233 -9.503613,-3.56573 -13.092924,-7.15505 -10.352908,-10.3529 -10.352607,-27.13834 3.66e-4,-37.49118 10.352882,-10.3525 27.137756,-10.35233 37.49045,3.6e-4 3.584748,3.59847 6.060238,8.15101 7.13203,13.11595 l 17.586318,-17.58632 -27.291196,-27.2912 8.673315,-8.67331 c 5.31151,1.27063 10.901804,-0.30567 14.767211,-4.16382 6.141321,-6.14094 6.141795,-16.09751 7.28e-4,-22.2387 -6.141187,-6.14105 -16.098226,-6.14102 -22.239067,3.6e-4 -3.8055,3.8154 -5.391208,9.31439 -4.203283,14.57063 L 58.1936,151.95459 26.806924,120.56792 Z"
         style="fill:#2b78c0;fill-opacity:1;stroke:#2b78c0;stroke-width:0.396;stroke-linejoin:round;stroke-miterlimit:4;stroke-dasharray:none;stroke-opacity:1" />
      <path
         id="rect4586-0"
         d="m 115.44355,50.81251 c -5.21698,-5.216933 -13.67533,-5.216932 -18.892305,6e-6 l -60.984728,60.984724 21.314594,21.3146 c 1.082333,-4.95934 3.565735,-9.50362 7.155051,-13.09294 10.352913,-10.35291 27.138348,-10.35261 37.491208,3.8e-4 10.3525,10.35288 10.35232,27.13775 -3.8e-4,37.49045 -3.598677,3.58454 -8.151002,6.06025 -13.115945,7.13204 l 17.586315,17.58632 27.29121,-27.29121 8.67332,8.67332 c -1.27064,5.31151 0.30567,10.9018 4.16382,14.76721 6.14094,6.14132 16.0975,6.14179 22.2387,7.2e-4 6.14105,-6.14119 6.14103,-16.09824 -3.5e-4,-22.23908 -3.8154,-3.8055 -9.3144,-5.3912 -14.57063,-4.20327 l -8.75188,-8.75188 31.3867,-31.38669 z"
         style="fill:none;fill-opacity:1;stroke:#2b78c0;stroke-width:5.50402069;stroke-linejoin:round;stroke-miterlimit:4;stroke-dasharray:none;stroke-opacity:1" />
      <path
         id="rect4586-00"
         d="m 246.17805,200.43932 c 5.21694,-5.21697 5.21694,-13.67532 0,-18.89229 l -60.98469,-60.9847 -21.31459,21.31459 c 4.95933,1.08234 9.50361,3.56573 13.09292,7.15505 10.35292,10.3529 10.35261,27.13834 -3.6e-4,37.49118 -10.35288,10.3525 -27.13776,10.35233 -37.49045,-3.6e-4 -3.58454,-3.59868 -6.06024,-8.15101 -7.13203,-13.11595 l -17.58632,17.58632 27.2912,27.2912 -8.67332,8.67331 c -5.31151,-1.27063 -10.9018,0.30567 -14.76721,4.16382 -6.14132,6.14094 -6.14179,16.09751 -7.3e-4,22.2387 6.14119,6.14105 16.09823,6.14102 22.23907,-3.6e-4 3.8055,-3.8154 5.39121,-9.31439 4.20328,-14.57063 l 8.75188,-8.75187 31.38667,31.38667 z"
         style="fill:#2b78c0;fill-opacity:1;stroke:#2b78c0;stroke-width:0.396;stroke-linejoin:round;stroke-miterlimit:4;stroke-dasharray:none;stroke-opacity:1" />
      <path
         id="rect4586-0-3"
         d="m 96.556752,331.17941 c 5.216968,5.21693 13.675328,5.21693 18.892298,0 l 60.98473,-60.98473 -21.31459,-21.3146 c -1.08234,4.95934 -3.56574,9.50362 -7.15505,13.09294 -10.35292,10.35291 -27.13835,10.35261 -37.49121,-3.8e-4 -10.3525,-10.35288 -10.35232,-27.13775 3.8e-4,-37.49045 3.59868,-3.58454 8.151,-6.06024 13.11594,-7.13204 l -17.58631,-17.58632 -27.291215,27.29121 -8.673315,-8.67331 c 1.270635,-5.31152 -0.305669,-10.90181 -4.16382,-14.76722 -6.140939,-6.14132 -16.097505,-6.14179 -22.238706,-7.2e-4 -6.141046,6.14119 -6.141025,16.09824 3.53e-4,22.23908 3.8154,3.8055 9.3144,5.3912 14.570636,4.20327 l 8.751874,8.75188 -31.386695,31.38669 z"
         style="fill:none;fill-opacity:1;stroke:#2b78c0;stroke-width:5.50402069;stroke-linejoin:round;stroke-miterlimit:4;stroke-dasharray:none;stroke-opacity:1" />
    </g>
  </g>
  <g
     id="layer2"
     transform="matrix(0.99999989,0,0,1.0001661,-4.0901943,-83.593669)" />
</svg>
